<svg width="34" height="29" viewBox="0 0 34 29" fill="none" xmlns="http://www.w3.org/2000/svg">
<path d="M2.77757 7.56112L17 0.557338L31.2224 7.56112V21.4389L17 28.4427L2.77757 21.4389V7.56112Z" stroke="#040404"/>
<path d="M16.6464 20.0202C16.8417 20.2155 17.1583 20.2155 17.3536 20.0202L20.5355 16.8382C20.7308 16.643 20.7308 16.3264 20.5355 16.1311C20.3403 15.9359 20.0237 15.9359 19.8284 16.1311L17 18.9596L14.1716 16.1311C13.9763 15.9359 13.6597 15.9359 13.4645 16.1311C13.2692 16.3264 13.2692 16.643 13.4645 16.8382L16.6464 20.0202ZM16.5 10V19.6667H17.5V10H16.5Z" fill="#040404"/>
</svg>
